<svg width="100" height="48" viewBox="0 0 119 58" fill="none" xmlns="http://www.w3.org/2000/svg">
<path d="M58.8821 27.6401L63.3283 41.9759L72.8855 27.6401H80.739L75.4618 57.5582H67.9407L70.9325 40.6878L64.5333 50.7436H59.0899L56.2643 40.6878L53.2725 57.5582H45.793L51.0702 27.6401H58.8821Z" fill="white"></path>
<path d="M89.8181 50.6496H86.064L84.8337 57.5582H79.1554L83.1618 34.8449H92.7834C95.1599 34.8449 96.8529 35.3917 97.8624 36.4853C98.5984 37.3265 98.9665 38.3991 98.9665 39.703C98.9665 40.1447 98.9244 40.6074 98.8403 41.0911L98.2094 44.6558C97.8939 46.4014 96.9686 47.842 95.4333 48.9777C93.898 50.0923 92.0263 50.6496 89.8181 50.6496ZM90.796 39.7661H87.9568L86.9158 45.7284H89.7234C91.4479 45.7284 92.4469 44.9608 92.7203 43.4255L92.9411 42.1321C92.9832 41.9428 93.0042 41.6905 93.0042 41.375C93.0042 41.0595 92.8465 40.7125 92.531 40.334C92.2156 39.9554 91.6372 39.7661 90.796 39.7661Z" fill="white"></path>
<path d="M106.843 42.6053C106.843 42.9208 106.896 43.2362 107.001 43.5517H101.417C101.312 43.1731 101.26 42.6789 101.26 42.069C101.26 39.7766 102.09 37.968 103.752 36.643C105.413 35.2971 107.8 34.6241 110.913 34.6241C113.395 34.6241 115.277 35.1499 116.56 36.2014C117.843 37.2319 118.484 38.662 118.484 40.4917C118.484 41.9849 117.99 43.394 117.001 44.7189C116.013 46.0438 114.877 46.7063 113.594 46.7063V46.801C114.583 46.801 115.371 47.148 115.96 47.842C116.549 48.536 116.844 49.4403 116.844 50.555C116.844 55.5183 113.542 57.9999 106.938 57.9999C104.183 57.9999 102.154 57.369 100.85 56.1071C99.8822 55.1818 99.3985 53.8989 99.3985 52.2585C99.3985 51.6696 99.4616 51.0387 99.5878 50.3657H105.266C105.224 50.597 105.203 50.8179 105.203 51.0282C105.203 52.4162 106.107 53.1102 107.916 53.1102C108.862 53.1102 109.651 52.8368 110.282 52.29C110.913 51.7432 111.228 51.0702 111.228 50.271C111.228 49.0513 110.429 48.4414 108.831 48.4414H105.645L106.276 45.0028H108.799C109.893 44.9818 110.808 44.6453 111.544 43.9933C112.301 43.3203 112.68 42.5948 112.68 41.8166C112.68 41.0385 112.438 40.4601 111.954 40.0816C111.491 39.703 110.797 39.5138 109.872 39.5138C108.947 39.5138 108.21 39.7977 107.664 40.3655C107.117 40.9123 106.843 41.6589 106.843 42.6053Z" fill="white"></path>
<path d="M12.1335 38.0513L19.1559 27.5385H26.6354L13.8371 45.9464L11.801 57.4566H4.27995L6.31605 45.9464L0 27.5385H7.93661L11.1777 38.0513H12.1335Z" fill="url(#paint0_linear_55_428)"></path>
<path d="M44.6818 39.6644H36.9214L33.7983 57.4566H28.0884L31.2115 39.6644H23.4196L24.3028 34.7432H45.5651L44.6818 39.6644Z" fill="url(#paint1_linear_55_428)"></path>
<path fill-rule="evenodd" clip-rule="evenodd" d="M113.808 31.4036L88.3351 30.2774L95.2011 24.6743C71.8566 3.71013 57.9115 10.2774 32.3975 30.2774C61.8367 2.27738 78.4276 -6.59182 101.373 15.9528L103.473 5.73055L113.808 31.4036Z" fill="url(#paint2_linear_55_428)"></path>
<defs>
<linearGradient id="paint0_linear_55_428" x1="21.8789" y1="55.2687" x2="21.8789" y2="27.5385" gradientUnits="userSpaceOnUse">
<stop stop-color="#B71C1C"></stop>
<stop offset="1" stop-color="#E53935"></stop>
</linearGradient>
<linearGradient id="paint1_linear_55_428" x1="21.8789" y1="55.2687" x2="21.8789" y2="27.5385" gradientUnits="userSpaceOnUse">
<stop stop-color="#B71C1C"></stop>
<stop offset="1" stop-color="#E53935"></stop>
</linearGradient>
<linearGradient id="paint2_linear_55_428" x1="105.258" y1="37.595" x2="75.7775" y2="14.0932" gradientUnits="userSpaceOnUse">
<stop stop-color="#B71C1C"></stop>
<stop offset="1" stop-color="#E53935"></stop>
</linearGradient>
</defs>
</svg> 